<svg xmlns="http://www.w3.org/2000/svg" viewBox="0 0 257.9 319.1">
  <path d="M190.9 319.1c-9-3.8-24.4-8.1-37.6-16-39.6-23.8-68.9-58.4-94.9-95.8-24.4-35-44.7-72.1-54.8-114C2.2 87.5 1.2 81.6.5 75.6c-4.4-38 18.2-68 56.4-75.1 9.5-1.8 18 1.2 21.3 9.6C86 29.8 93.5 49.9 98.4 70.4c3 12.5-6.6 22.1-17 28-11.5 6.5-12.3 13.9-8.1 25.7 14.9 42.3 39.7 77 75.4 104.2 6.2 4.8 10.8 5 17.5.3 22.7-15.9 31.5-15.8 53.8.9 11 8.1 21.3 17.1 30.7 27 9.8 10.5 9.5 20.5-.4 30.9-14.6 15.3-29.8 30.3-59.4 31.7z" fill="#fff"/>
</svg>
