<svg xmlns="http://www.w3.org/2000/svg" viewBox="0 0 259 388.4">
  <path d="M0 144.9C.4 96.7 12 64.2 38 37.7 58.2 17.2 82.8 4.8 111.5 1.2c44.2-5.5 82.2 7.4 112.8 40 17.6 18.8 27.9 41.5 32.2 66.8 5.1 29.9 2.9 59-11.5 86.3-8 15.3-16.7 30.3-25.2 45.3-26.8 47.3-53.6 94.5-80.5 141.8-3.5 6.1-7.8 8.5-12.8 6.2-2.8-1.5-5.1-3.7-6.6-6.5C99 344.5 78.2 308 57.5 271.3c-13.3-23.5-26.8-46.9-40.1-70.5C5.7 179.9-.4 157.6 0 144.9zm70-16.1c0 33.4 26.3 60.2 59.3 60.2 33 .1 59.8-26.6 59.8-59.5s-26.6-59.8-59.5-59.8c-32.8 0-59.5 26.4-59.6 59.1z" fill="#fff"/>
</svg>
